<svg id="vector" xmlns="http://www.w3.org/2000/svg" width="144" height="150" viewBox="0 0 144 150">
   <defs>
    <linearGradient id="grad0" x1="72" y1="31.19" x2="72" y2="75.56" gradientUnits="userSpaceOnUse">
      <stop offset="0.3" stop-color="#29e78c" stop-opacity="1"/>
      <stop offset="1" stop-color="#32e990" stop-opacity="0"/>
    </linearGradient>
    <linearGradient id="grad1" x1="49.92" y1="37.75" x2="43.64" y2="89.35" gradientUnits="userSpaceOnUse">
      <stop offset="0" stop-color="#95ffad" stop-opacity="1"/>
      <stop offset="0.82" stop-color="#97ee56" stop-opacity="1"/>
    </linearGradient>
    <linearGradient id="grad2" x1="83.34" y1="32.02" x2="74.48" y2="101.65" gradientUnits="userSpaceOnUse">
      <stop offset="0.16" stop-color="#95ffac" stop-opacity="1"/>
      <stop offset="0.97" stop-color="#97e11b" stop-opacity="1"/>
    </linearGradient>
    <radialGradient id="grad3" cx="65.66" cy="36.98" r="15.31" gradientUnits="userSpaceOnUse">
      <stop offset="0" stop-color="#e9ffd8" stop-opacity="1"/>
      <stop offset="0.63" stop-color="#e9ffd8" stop-opacity="0"/>
    </radialGradient>
    <radialGradient id="grad4" cx="45.73" cy="39.23" r="6.45" gradientUnits="userSpaceOnUse">
      <stop offset="0" stop-color="#e9ffd8" stop-opacity="1"/>
      <stop offset="0.63" stop-color="#e9ffd8" stop-opacity="0"/>
    </radialGradient>
    <radialGradient id="grad5" cx="80.72" cy="50.19" r="15.2" gradientUnits="userSpaceOnUse">
      <stop offset="0" stop-color="#e9ffd8" stop-opacity="1"/>
      <stop offset="0.69" stop-color="#e9ffd8" stop-opacity="0"/>
    </radialGradient>
  </defs>
   <path fill="#225300" d="M72,117.56C95.2,117.56 114,98.76 114,75.56C114,52.36 95.2,33.56 72,33.56C48.8,33.56 30,52.36 30,75.56C30,98.76 48.8,117.56 72,117.56Z" stroke="#258b4e" stroke-width="4.7228" id="path_0"/>
   <path fill="url(#grad0)" d="M114,75.56C115.31,75.56 116.37,74.5 116.3,73.2C115.08,49.79 95.71,31.19 72,31.19C48.29,31.19 28.93,49.79 27.7,73.2C27.63,74.5 28.69,75.56 30,75.56V75.56C31.3,75.56 32.35,74.5 32.43,73.2C33.65,52.4 50.9,35.92 72,35.92C93.1,35.92 110.35,52.4 111.57,73.2C111.65,74.5 112.7,75.56 114,75.56V75.56Z" id="path_1"/>
   <path fill="url(#grad1)" d="M50.33,45.79C55.03,43.18 53.65,38.59 51.53,37.27C49.8,36.19 46.51,35.69 43.52,37.48C41.05,38.95 35.61,44.49 35.82,54.95C36.12,69.84 48.06,75.94 48.06,75.94L56.98,51.6C56.18,47.98 53.29,45.76 50.33,45.79Z" id="path_2"/>
   <path fill="url(#grad2)" d="M45.25,64.11C44.71,69.25 43.57,86.58 55.55,95.89C66.29,104.08 81.12,101.17 89.19,96.33C94.65,98 104.25,95.55 108.41,89.01C108.63,88.67 108.83,88.29 109,87.89C110.03,86.09 110.74,84.03 111.02,81.81C111.82,75.51 109,69.65 104.28,66.68C105.1,63.71 106.08,60.26 106.08,60.26L107.38,55.14C109.7,45.99 103.93,38.34 94.52,37.74L87.66,37.31C87.38,37.29 87.1,37.23 86.85,37.1C85.4,36.4 81.36,34.15 81.36,34.15C80.64,33.82 79.91,33.43 79.16,33.04C77.78,32.31 76.37,31.56 74.97,31.13C71.63,30.11 64.66,30.04 59.68,33.73C54.44,37.61 49.72,45.97 48.16,51.45C48.16,51.45 45.91,57.87 45.25,64.11Z" id="path_3"/>
   <path fill="#00000000" d="M68.45,95.4L71.73,90.15" stroke="#00a91b" stroke-width="7.4822" stroke-linecap="round" id="path_4"/>
   <path fill="#e9ffd8" d="M58.58,48.16C56.32,46.98 53.1,47.96 52.06,51.21C51.02,54.45 50.43,56.36 50.43,56.36C50.38,56.52 50.33,56.68 50.29,56.84C54.15,56.9 57.79,59.75 59.15,63.08C59.56,62.6 59.9,61.99 60.12,61.28C60.12,61.28 60.48,60.79 61.45,56.57C62.42,52.35 60.85,49.35 58.58,48.16Z" id="path_5"/>
   <path fill="#ffffff" d="M51.62,52.55C51.76,52.13 51.9,51.68 52.05,51.2C53.09,47.96 56.31,46.97 58.57,48.16C59.68,48.74 60.62,49.75 61.18,51.12C60.37,52.16 59.07,53.04 57.48,53.49C55.16,54.15 52.89,53.73 51.62,52.55Z" id="path_6"/>
   <path fill="#0db346" d="M57.64,51.56C58.88,51.61 59.94,50.61 60,49.32C60,49.25 60,49.17 60,49.1C61.5,50.62 62.33,53.19 61.56,56.54C61.36,57.42 61.18,58.14 61.03,58.72C60.28,59.17 59.41,59.32 58.48,59.13C56.27,58.67 54.97,56.36 55.52,53.54C55.68,52.69 55.91,51.79 56.24,50.97C56.61,51.31 57.1,51.53 57.64,51.56Z" id="path_7"/>
   <path fill="#2ad827" d="M62.16,64.44C64.09,64.95 65.24,66.94 64.72,68.87C64.21,70.8 62.23,71.95 60.29,71.43C58.36,70.92 57.21,68.93 57.73,67C58.24,65.07 60.23,63.92 62.16,64.44Z" id="path_8"/>
   <path fill="#e9ffd8" d="M58.26,68.36C58.38,68.58 58.63,68.72 58.93,68.74C60.92,68.98 65.42,69.31 65.6,68.58C65.85,67.53 64.66,64.13 61.89,63.46C59.6,62.92 58.01,63.59 57.5,64.92C57.16,65.82 57.64,67.29 58.26,68.36Z" id="path_9"/>
   <path fill="#ffffff" d="M57.5,64.92C58.01,63.59 59.6,62.92 61.89,63.46C60.41,63.8 58.64,65.92 58.26,68.36C57.64,67.29 57.16,65.82 57.5,64.92Z" id="path_10"/>
   <path fill="#e9ffd8" d="M71.55,57.84C70.52,58.79 69.72,60.03 69.29,61.55L68.19,65.19C67.91,66.2 67.84,67.19 67.95,68.14C71.9,67.05 78.61,67.9 82.3,70.77C82.94,69.94 83.43,68.99 83.72,67.96L84.81,64.1C85.42,61.92 84.85,60.01 83.57,58.56L71.55,57.84Z" id="path_11"/>
   <path fill="#ffffff" d="M71.57,57.85C70.57,58.75 69.8,59.94 69.36,61.37C71.03,62.53 73.5,62.92 75.98,62.21C78.28,61.55 80.08,60.11 80.97,58.41L71.57,57.85Z" id="path_12"/>
   <path fill="#0db346" d="M73.68,57.97C73.46,58.83 73.04,60.49 72.93,61.11C72.43,63.91 73.98,66.14 76.47,66.52C78.96,66.9 81.01,65.37 81.71,62.59C82.04,61.29 82.33,59.78 82.1,58.47L73.68,57.97Z" id="path_13"/>
   <path fill="#00000000" d="M45.81,95.26C46.74,97 47.68,98.21 49.35,99.69" stroke="#00a91b" stroke-width="7.4822" stroke-linecap="round" id="path_14"/>
   <path fill="#b5ff53" d="M60.76,83.87C58.72,83.24 56.71,82.58 54.72,81.89C54.4,81.77 54.1,81.94 54.13,82.23C54.25,83.57 55.33,84.83 56.86,85.33C58.41,85.83 60.11,85.47 61.04,84.49C61.23,84.28 61.09,83.97 60.76,83.87Z" id="path_15"/>
   <path fill="#b5ff53" d="M56.18,78.97C54.32,77.86 53.03,77.44 51.19,76.2C50.9,76 50.6,76.13 50.61,76.47C50.66,78.08 51.26,79.07 52.65,79.83C54.04,80.59 55.55,80.37 56.43,79.6C56.61,79.45 56.49,79.14 56.18,78.97Z" id="path_16"/>
   <path fill="#b5ff53" d="M67.57,81.91C65.25,81.46 63.01,81.01 60.86,80.58C60.52,80.5 60.21,80.67 60.26,80.91C60.44,82.09 61.66,83.22 63.35,83.62C65.08,84.03 66.97,83.58 67.99,82.52C68.19,82.3 67.97,81.99 67.57,81.91Z" id="path_17"/>
   <path fill="#00000000" d="M93.82,77.92C92.33,77.86 90.83,78.24 89.52,79.11C87.75,80.29 86.67,82.13 86.35,84.16C86.35,84.16 84.08,82.79 81.96,84.19C79.14,86.06 79.41,89.25 81.02,91.74C82,93.25 83.5,94.96 85.27,95.69" stroke="#18cf15" stroke-width="1.5743" stroke-linecap="round" id="path_18"/>
   <path fill="#00000000" d="M88.56,87C88.15,85.12 86.78,84.28 86.78,84.28" stroke="#18cf15" stroke-width="1.5743" stroke-linecap="round" id="path_19"/>
   <path fill="#00a91b" d="M81.49,91.25C77.24,93.7 71.26,94.76 66.2,94.22C53.9,92.93 46.8,82.84 45.1,73.82C45.67,80.99 48.01,90.03 55.55,95.89C66.29,104.08 81.12,101.17 89.18,96.33C86.36,95.47 84.05,94.41 81.49,91.25Z" id="path_20"/>
   <path fill="#00000000" d="M52.18,45.9C50.33,47.7 47.99,48.16 45.64,46.87" stroke="#2ad827" stroke-width="1.5743" stroke-linecap="round" id="path_21"/>
   <path fill="url(#grad3)" d="M65.66,52.29C73.62,52.29 80.07,45.84 80.07,37.88C80.07,36.2 79.78,34.59 79.25,33.09C79.22,33.07 79.19,33.05 79.16,33.04C77.78,32.31 76.37,31.56 74.97,31.13C71.63,30.11 64.66,30.04 59.67,33.74C56.86,35.82 54.19,39.2 52.08,42.74C54.08,48.31 59.4,52.29 65.66,52.29Z" id="path_22"/>
   <path fill="url(#grad4)" d="M45.73,45.67C48.93,45.67 51.52,43.08 51.52,39.89C51.52,38.76 51.2,37.71 50.64,36.82C48.81,36.09 46.06,35.96 43.52,37.48C42.61,38.02 41.3,39.12 40.02,40.8C40.45,43.56 42.85,45.67 45.73,45.67Z" id="path_23"/>
   <path fill="#e9ffd8" d="M45.99,40.44C44.76,40.8 43.88,41.36 43.26,40.82C42.63,40.28 42.81,39.27 43.43,38.63C43.98,38.06 44.67,37.74 45.23,37.56C45.8,37.39 46.38,37.31 46.88,37.33C47.75,37.37 48.73,37.97 48.62,38.81C48.51,39.65 47.51,40.01 45.99,40.44Z" fill-rule="1" id="path_24"/>
   <path fill="#e9ffd8" d="M96.71,72.97C94.84,74.25 93.67,75.62 92.36,75.22C91.05,74.83 90.84,73.24 91.54,71.93C92.17,70.74 93.16,69.85 94,69.25C94.85,68.64 95.79,68.16 96.62,67.89C98.09,67.4 100.04,67.66 100.28,68.95C100.52,70.24 99.02,71.39 96.71,72.97Z" fill-rule="1" id="path_25"/>
   <path fill="url(#grad5)" d="M77.46,44.14a6.99,15.39 60,1 0,6.99 12.1a6.99,15.39 60,1 0,-6.99 -12.1z" stroke-opacity="0.5" fill-opacity="0.5" id="path_26"/>
   <path fill="#00000000" d="M74.05,52.85C77.45,51.99 84.12,48.8 86.68,47.53" stroke="#e9ffd8" stroke-width="1.5743" stroke-linecap="round" id="path_27"/>
   <path fill="#00000000" d="M55.29,68.05C54.39,68.07 53.44,67.92 52.45,67.59C48.98,66.44 46.76,61.26 48.38,55.68C49.22,52.8 49.91,49.99 51.26,47.31C52.13,45.81 53.22,44.59 54.45,43.76C54.46,43.69 54.47,43.62 54.48,43.54C54.97,40.97 57.47,39.32 58.37,39.53C58.83,39.65 58.8,39.79 58.05,42.3C59.69,39.39 61.32,38.6 62.3,38.2C63.27,37.8 65.02,37.59 64.64,39.25C64.52,39.8 63.86,45.57 65.09,48.65C67.89,54.97 76.99,50.39 80.5,48.88C84.02,47.37 86.3,46.32 86.3,46.32C86.83,46.02 87.51,46.34 87.62,46.95C87.97,48.76 87.42,50.34 86.32,51.64L89.56,49.82C90.06,49.54 90.7,49.83 90.81,50.41C91.14,52.17 90.38,54.87 88.91,56.31C90.47,59.05 90.67,62.02 89.55,65.24L87.49,70.61C85.47,76.42 78.83,78.83 73.51,77.6C70.17,76.84 66.97,74.54 65.69,72.01" stroke="#2ad827" stroke-width="1.5743" stroke-linecap="round" stroke-linejoin="round" id="path_28"/>
   <path fill="#e9ffd8" d="M67.43,42.3C64.02,44.69 60.19,45.27 57.64,43.37C55.1,41.48 56.88,36.9 60.47,34.73C64.05,32.55 71.69,31.78 75.38,34.38C79.07,36.97 70.83,39.91 67.43,42.3Z" id="path_29"/>
   <path fill="#95ffac" d="M56.47,41.37C56.35,40.79 56.58,39.84 56.74,39.21C56.79,39.18 57.09,39.04 57.14,39.01C57.56,38.83 58.07,38.68 58.55,38.79L58.56,38.8C58.67,38.82 59.01,38.9 59.24,39.21C59.26,39.24 59.28,39.27 59.3,39.31C59.52,39.09 59.73,38.89 59.94,38.72C60.76,38.04 61.49,37.71 62.01,37.49C62.55,37.27 63.4,37.06 64.13,37.21C64.52,37.29 64.95,37.49 65.22,37.93C65.49,38.37 65.51,38.89 65.39,39.42L65.39,39.43L65.38,39.45C65.38,39.47 65.38,39.5 65.37,39.53C65.36,39.6 65.35,39.68 65.34,39.78C65.31,39.99 65.28,40.26 65.25,40.59C65.19,41.24 65.14,42.09 65.12,43.01C65.12,43.2 65.12,43.39 65.12,43.58C64.61,43.79 64.1,43.94 63.6,44.05C63.59,43.68 63.59,43.33 63.6,42.99C63.63,41.07 63.82,39.43 63.9,39.09C63.95,38.86 63.94,38.76 63.91,38.72C63.91,38.72 63.52,38.53 62.59,38.91C62.14,39.09 61.56,39.35 60.91,39.89C60.26,40.44 59.5,41.29 58.71,42.67C58.63,42.82 58.51,42.93 58.37,42.99C58.19,43.07 57.94,43.18 57.59,42.96C57.17,42.58 57.26,42.26 57.35,41.96C57.58,41.21 57.72,40.72 57.81,40.39C57.8,40.39 57.78,40.4 57.76,40.41C57.52,40.51 56.85,40.96 56.47,41.37Z" id="path_30"/>
   <path fill="#00000000" d="M65.39,39.42C65.51,38.89 65.49,38.37 65.22,37.93C64.95,37.49 64.52,37.29 64.13,37.21C63.4,37.06 62.55,37.27 62.01,37.49C61.49,37.71 60.76,38.04 59.94,38.72C59.73,38.89 59.52,39.09 59.3,39.31C59.28,39.27 59.26,39.24 59.24,39.21C59.01,38.9 58.67,38.82 58.56,38.8L58.55,38.79C58.07,38.68 57.56,38.83 57.14,39.01C57.09,39.04 56.79,39.18 56.74,39.21C56.58,39.84 56.35,40.79 56.47,41.37C56.85,40.96 57.52,40.51 57.76,40.41C57.78,40.4 57.8,40.39 57.81,40.39C57.72,40.72 57.58,41.21 57.35,41.96C57.26,42.26 57.17,42.58 57.59,42.96C57.94,43.18 58.19,43.07 58.37,42.99C58.51,42.93 58.63,42.82 58.71,42.67C59.5,41.29 60.26,40.44 60.91,39.89C61.56,39.35 62.14,39.09 62.59,38.91C63.52,38.53 63.91,38.72 63.91,38.72C63.94,38.76 63.95,38.86 63.9,39.09C63.82,39.43 63.63,41.07 63.6,42.99C63.59,43.33 63.59,43.68 63.6,44.05C64.1,43.94 64.61,43.79 65.12,43.58C65.12,43.39 65.12,43.2 65.12,43.01C65.14,42.09 65.19,41.24 65.25,40.59C65.28,40.26 65.31,39.99 65.34,39.78C65.35,39.68 65.36,39.6 65.37,39.53C65.38,39.5 65.38,39.47 65.38,39.45L65.39,39.43M65.39,39.42L65.39,39.43M65.39,39.42L65.39,39.42L65.39,39.43" stroke="#95ffac" stroke-width="0.105" stroke-linejoin="round" id="path_31"/>
</svg>