<svg id="vector" xmlns="http://www.w3.org/2000/svg" width="144" height="150" viewBox="0 0 144 150">
   <defs>
    <linearGradient id="grad0" x1="72.08" y1="25.21" x2="72.08" y2="118.89" gradientUnits="userSpaceOnUse">
      <stop offset="0.08" stop-color="#ff8a00" stop-opacity="0.3"/>
      <stop offset="0.43" stop-color="#973802" stop-opacity="1"/>
    </linearGradient>
    <linearGradient id="grad1" x1="94.34" y1="-3.74" x2="55.99" y2="137.46" gradientUnits="userSpaceOnUse">
      <stop offset="0.49" stop-color="#ff8a00" stop-opacity="1"/>
      <stop offset="0.77" stop-color="#ff3030" stop-opacity="1"/>
    </linearGradient>
    <linearGradient id="grad2" x1="62.07" y1="70.08" x2="108.72" y2="28.26" gradientUnits="userSpaceOnUse">
      <stop offset="0.16" stop-color="#ef0e0e" stop-opacity="1"/>
      <stop offset="0.77" stop-color="#ff9600" stop-opacity="1"/>
    </linearGradient>
    <radialGradient id="grad3" cx="63.17" cy="62.93" r="7.9" gradientUnits="userSpaceOnUse">
      <stop offset="0" stop-color="#ffb801" stop-opacity="1"/>
      <stop offset="1" stop-color="#ff8a01" stop-opacity="0"/>
    </radialGradient>
     <radialGradient id="grad4" cx="69.81" cy="78.43" r="7.3" gradientUnits="userSpaceOnUse">
      <stop offset="0" stop-color="#ffb155" stop-opacity="1"/>
      <stop offset="0.9" stop-color="#ffb155" stop-opacity="0"/>
    </radialGradient>
  </defs>
   <path fill="#5c2200" d="M78.75,29.56C75.24,25.13 68.53,25.13 65.02,29.56L53.28,44.39L46.64,40.83C46.07,40.52 45.29,40.24 44.64,40.04C43.98,39.83 43.24,39.63 42.69,39.54C39.93,39.08 37.52,39.95 35.88,41.84C34.32,43.64 33.64,46.11 33.65,48.65L33.73,77.94L33.73,77.94L33.73,80.04L33.73,81.92C33.73,102.47 50.75,119.02 71.89,119.02C93.01,119.02 110.27,102.49 110.27,81.92C110.27,73.24 107.18,65.26 102.03,58.95L78.75,29.56Z" stroke="#973802" stroke-width="4.6337" id="path_0"/>
   <path fill="#00000000" d="M110.26,81.93C110.26,73.3 107.26,65.35 102.12,59.05L78.14,28.88C74.28,24.88 68.22,25.75 65.29,29.28L53.22,44.35L47.3,41.16C46.12,40.64 44.47,39.76 41.94,39.47C37.92,39 33.71,42.16 33.71,48.04V77.41C33.71,79.14 33.75,80.49 33.75,81.92" stroke="url(#grad0)" stroke-width="4.6337" stroke-linecap="round" id="path_1"/>
   <path fill="#00000000" d="M52.45,103.65C50.74,102.7 49.71,101.51 47.82,99.04" stroke="#f01a17" stroke-width="6.792" stroke-linecap="round" id="path_2"/>
   <path fill="#00000000" d="M93.39,101.88C95.4,100.25 96.28,99.19 97.7,96.97" stroke="#f01a17" stroke-width="6.792" stroke-linecap="round" id="path_3"/>
   <path fill="url(#grad1)" d="M88.34,45.77L95.5,38.74C97.49,36.84 100.72,37.28 101.76,39.83C103.54,44.17 105.08,50.3 103.78,56.7C102.62,62.4 100.63,66.59 98.44,69.78C98.87,72.95 98.84,76.11 98.46,79.75C97.42,89.67 90.43,98.38 81.77,101.84C72.75,105.61 60.25,103.83 52.93,96.1C48.21,91.12 46.14,83.54 44.65,76.39L39.15,61.15C36.77,53.6 40.09,46.58 47.65,45.06C50.38,44.51 60.02,43.5 62.83,42.72C63.51,40.64 65.82,35.59 71.34,35.05C76.86,34.51 82.46,38.5 88.34,45.77Z" id="path_4"/>
   <path fill="#ffb155" d="M89.61,77.29L84.16,79.17C83.86,79.28 83.83,79.69 84.12,79.84L84.73,80.14C86.46,81.01 88.57,80.37 89.54,78.69L90.04,77.81C90.21,77.52 89.93,77.18 89.61,77.29Z" id="path_5"/>
   <path fill="#ffb155" d="M85.1,84.87L79.64,86.74C79.34,86.84 79.31,87.26 79.6,87.4L80.67,87.94C82.14,88.68 83.94,88.15 84.76,86.72L85.53,85.39C85.69,85.11 85.42,84.77 85.1,84.87Z" id="path_6"/>
   <path fill="#00000000" d="M71.95,95.94C76.76,89.23 79.39,83.17 81.32,76.2C81.78,74.53 81.02,72.97 79.73,72.28" stroke="#f43f3f" stroke-width="1.0776" stroke-linecap="round" id="path_7"/>
   <path fill="#ffde8a" d="M67.9,50.65C67.89,53.54 63.29,54.99 56.24,55.21C49.2,55.44 44.61,53.92 44.62,51.04C44.63,48.15 49.65,46.21 56.06,46.23C62.46,46.25 67.91,47.77 67.9,50.65Z" id="path_8"/>
   <path fill="#f01a17" d="M62.77,76.67C59.49,76.08 56.51,72.03 55.96,70.7C58.86,72.7 63,74.82 68.06,73.77C72.1,72.93 74.17,69.19 74.69,67.43C75.53,69.12 78.76,70.41 79.9,70.86C79.9,70.86 79.4,71.46 80.11,71.88C80.82,72.3 79.6,72.81 79.6,72.81C77.44,71.48 66.04,77.25 62.77,76.67Z" id="path_9"/>
   <path fill="#00000000" d="M74.29,63.73C74.69,67.6 73.1,71.54 69.28,73.45C65.46,75.35 58.45,75.37 55.23,68.29L53.62,64.56C52.28,61.83 51.84,59.76 53,57.43C51.6,57.42 49.36,56.55 49.22,55.66C49.08,54.77 50.29,54.55 51.79,54.12C53.28,53.69 53.76,53.64 54.77,53.21C53.23,52.11 52.22,50.79 52.36,49.25C52.47,48.52 53.04,48.24 53.82,48.51C53.82,48.51 55.56,49.18 59.7,49.86C63.85,50.55 69.98,50.47 72.52,48.75C75.07,47.03 75.46,44.34 75.47,42.79C75.48,41.24 75.06,40.4 75.47,39.98C75.89,39.56 78.14,40.61 79.11,43.08C79.25,42.57 79.36,42.08 79.45,41.69C79.53,41.3 80.02,41.18 80.33,41.49C81.17,42.33 82.51,43.8 82.91,44.92C84.96,45.66 87.13,48.11 88.07,49.37C89.57,51.64 90.47,54.02 91.51,56.46C93.54,61.2 92.15,66 88.71,66.98C86.88,67.51 84.91,67 83.16,65.93" stroke="#f01a17" stroke-width="1.3437" stroke-linecap="round" id="path_10"/>
   <path fill="#ffae35" d="M67.88,50.78C67.89,50.74 67.89,50.7 67.89,50.65C67.89,50.23 67.77,49.83 67.55,49.46C67.24,49.5 66.91,49.52 66.58,49.54C64.27,49.69 61.75,49.54 59.73,49.2C57.68,48.87 56.23,48.53 55.3,48.28C54.84,48.16 54.5,48.06 54.29,47.99C54.18,47.95 54.11,47.93 54.06,47.91C54.03,47.9 54.01,47.9 54,47.89L53.99,47.89L53.99,47.89L53.99,47.89L53.99,47.89L53.99,47.89L53.98,47.88L53.96,47.88C53.45,47.7 52.92,47.68 52.47,47.9C52.01,48.13 51.75,48.57 51.67,49.09L51.67,49.1L51.67,49.12C51.54,50.63 52.3,51.91 53.44,52.95C53.22,53.02 52.99,53.08 52.72,53.15C52.4,53.23 52.02,53.33 51.52,53.48C51.37,53.52 51.22,53.56 51.07,53.61L51.07,53.61C50.51,53.76 49.95,53.91 49.54,54.11C49.29,54.22 49.03,54.38 48.84,54.6C49.52,54.78 50.29,54.92 51.11,55.02C51.23,54.98 51.36,54.95 51.49,54.91C51.66,54.87 51.84,54.82 52.03,54.76C52.46,54.64 52.82,54.54 53.13,54.46C53.85,54.27 54.34,54.14 55.08,53.82L56.11,53.39L55.12,52.68C53.66,51.65 52.93,50.57 53.02,49.4C53.05,49.2 53.13,49.13 53.18,49.1C53.24,49.07 53.38,49.04 53.64,49.13L53.65,49.13C53.67,49.14 53.69,49.15 53.72,49.16C53.79,49.18 53.88,49.21 54,49.25C54.24,49.33 54.6,49.44 55.08,49.57C56.06,49.83 57.55,50.17 59.65,50.52C61.77,50.87 64.4,51.03 66.82,50.87C67.17,50.85 67.53,50.82 67.88,50.78Z" id="path_11"/>
   <path fill="#00000000" d="M76.52,40.95C77.07,42.49 77.06,46.7 73.7,49.57" stroke="#ffde8a" stroke-width="1.3437" stroke-linecap="round" id="path_12"/>
   <path fill="#00000000" d="M76.52,40.95C77.07,42.49 77.06,46.7 73.7,49.57" stroke="#ffde8a" stroke-width="1.3437" stroke-linecap="round" id="path_13"/>
   <path fill="#f01a17" d="M97.5,84.47C95.11,92.36 89.03,98.94 81.77,101.84C72.75,105.61 60.25,103.83 52.93,96.1C52.7,95.86 52.47,95.61 52.25,95.35C56.69,97.53 62,97.35 65.82,95.97C70.48,94.3 74.69,91.01 77.63,85.24C77.32,86.28 78.44,85.85 78.44,85.85L76.67,89.47C75.9,90.98 76.31,92.88 77.92,93.41C83.52,95.29 92.24,93.15 97.5,84.47Z" id="path_14"/>
   <path fill="url(#grad2)" d="M75.25,59.29L69.48,67.24C67.75,69.64 64.63,70.58 61.86,69.54L48.75,64.66C47.77,64.29 47.8,62.87 48.8,62.55C54.06,60.88 64.86,57.29 72.11,53.82C78.13,50.94 84.36,47.35 87.16,45.7C87.87,45.28 88.76,45.74 88.83,46.56L89.46,54.05C89.85,58.63 85.54,62.19 81.12,60.94L75.25,59.29Z" id="path_15"/>
   <path fill="url(#grad3)" d="M63.17,62.93m-7.9,0a7.9,7.9 0,1 1,15.8 0a7.9,7.9 0,1 1,-15.8 0" id="path_16"/>
   <path fill="#ffec89" d="M58.62,65.23C58.37,65.71 58.51,66.28 59,66.51C59.97,66.96 61.41,67.46 62.34,67.66C62.75,67.75 63.12,67.52 63.31,67.15L67.88,58.26C68.09,57.84 67.65,57.39 67.22,57.57V57.57C65.61,58.28 63.72,59 61.83,59.68C61.57,59.78 61.35,59.96 61.22,60.21L58.62,65.23Z" id="path_17"/>
   <path fill="#f01719" d="M72.71,63.87C72.71,63.87 73.34,60.93 75.15,60.16C76.97,59.39 79.28,61.08 79.28,61.08L81.61,66.39C82.38,68.25 81.53,70.38 79.72,71.15C77.9,71.92 75.8,71.04 75.03,69.18L72.71,63.87Z" id="path_18"/>
   <path fill="#ff9600" d="M74.73,65.99C74.64,65.79 74.76,65.56 74.97,65.53C75.7,65.41 77.28,65.3 78.57,66.19C80.3,67.38 80.5,69.41 79.22,70.07C77.94,70.73 76.35,69.84 75.85,68.53L74.73,65.99Z" id="path_19"/>
   <path fill="#ffde8a" d="M75.06,59.37C72.55,60.57 72.01,63.33 72.96,65.14C73.01,65.24 73.15,65.26 73.23,65.18L78.32,60.14L79.85,61.9C79.95,62.01 80.12,61.97 80.11,61.82C80.04,60.3 77.48,58.21 75.06,59.37Z" id="path_20"/>
   <path fill="#ffffff" d="M78.15,60.42L79.85,61.9C79.95,62.02 80.12,61.97 80.11,61.82C80.03,60.3 77.48,58.21 75.06,59.37L75.06,59.37C76.36,59.21 77.56,59.75 78.15,60.42Z" id="path_21"/>
   <path fill="url(#grad4)" d="M56.76,82.03a7.3,13.54 74.58,1 0,26.11 -7.2a7.3,13.54 74.58,1 0,-26.11 7.2z" id="path_22"/>
   <path fill="#ffb155" d="M60.66,80.35C59.53,79.53 59.85,77.77 61.19,77.38L75.82,73.2C77.07,72.84 78.22,74.05 77.78,75.28V75.28C76.61,78.62 73.87,81.17 70.46,82.09L70.24,82.15C66.94,83.05 63.41,82.39 60.66,80.35V80.35Z" id="path_23"/>
</svg>